HIERARCHY
ROOT Hips
{
	OFFSET 0.00000 0.00000 0.00000
	CHANNELS 6 Xposition Yposition Zposition Zrotation Yrotation Xrotation 
	JOINT LHipJoint
	{
		OFFSET 0 0 0
		CHANNELS 3 Zrotation Yrotation Xrotation
		JOINT LeftHip
		{
			OFFSET 1.86795 -1.59681 0.65681
			CHANNELS 3 Zrotation Yrotation Xrotation
			JOINT LeftKnee
			{
				OFFSET 2.30491 -6.33268 0.00000
				CHANNELS 3 Zrotation Yrotation Xrotation
				JOINT LeftAnkle
				{
					OFFSET 2.46780 -6.78022 0.00000
					CHANNELS 3 Zrotation Yrotation Xrotation
					JOINT LeftToe
					{
						OFFSET 0.07897 -0.21698 1.59652
						CHANNELS 3 Zrotation Yrotation Xrotation
						End Site
						{
							OFFSET 0.00000 -0.00000 0.82310
						}
					}
				}
			}
		}
	}
	JOINT RHipJoint
	{
		OFFSET 0 0 0
		CHANNELS 3 Zrotation Yrotation Xrotation
		JOINT RightHip
		{
			OFFSET -1.93650 -1.59681 0.65681
			CHANNELS 3 Zrotation Yrotation Xrotation
			JOINT RightKnee
			{
				OFFSET -2.29410 -6.30299 0.00000
				CHANNELS 3 Zrotation Yrotation Xrotation
				JOINT RightAnkle
				{
					OFFSET -2.48738 -6.83403 0.00000
					CHANNELS 3 Zrotation Yrotation Xrotation
					JOINT RightToe
					{
						OFFSET -0.08699 -0.23899 1.89395
						CHANNELS 3 Zrotation Yrotation Xrotation
						End Site
						{
							OFFSET -0.00000 -0.00000 0.96904
						}
					}
				}
			}
		}
	}
	JOINT lowerback
	{
		OFFSET 0 0 0
		CHANNELS 3 Zrotation Yrotation Xrotation
		JOINT Chest
		{
			OFFSET 0.03629 1.99740 -0.07548
			CHANNELS 3 Zrotation Yrotation Xrotation
			JOINT Chest2
			{
				OFFSET 0.03970 1.94298 0.17218
				CHANNELS 3 Zrotation Yrotation Xrotation
				JOINT lowerneck
				{
					OFFSET 0 0 0
					CHANNELS 3 Zrotation Yrotation Xrotation
					JOINT Neck
					{
						OFFSET -0.05054 1.79469 0.04241
						CHANNELS 3 Zrotation Yrotation Xrotation
						JOINT Head
						{
							OFFSET 0.05195 1.78475 -0.22133
							CHANNELS 3 Zrotation Yrotation Xrotation
							End Site
							{
								OFFSET 0.02420 1.80711 -0.07950
							}
						}
					}
				}
				JOINT LeftCollar
				{
					OFFSET 0 0 0
					CHANNELS 3 Zrotation Yrotation Xrotation
					JOINT LeftShoulder
					{
						OFFSET 2.92134 1.19850 0.36056
CHANNELS 3 Zrotation Xrotation Yrotation
						JOINT LeftElbow
						{
OFFSET 0 -4.841370 0.000000
CHANNELS 3 Zrotation Xrotation Yrotation
							JOINT LeftWrist
							{
OFFSET 0 -3.245200 -0.000000
CHANNELS 3 Zrotation Xrotation Yrotation
								JOINT lhand
								{
									OFFSET 0 0 0
CHANNELS 3 Zrotation Xrotation Yrotation
									JOINT LFingers
									{
OFFSET 0 -0.521220 0.000000
CHANNELS 3 Zrotation Xrotation Yrotation
										End Site
										{
OFFSET 0 -0.420220 0.000000
										}
									}
								}
								JOINT LThumb
								{
OFFSET 0 0.000000 0.000000
CHANNELS 3 Zrotation Xrotation Yrotation
									End Site
									{
OFFSET 0 -0.426640 0.426640
									}
								}
							}
						}
					}
				}
				JOINT RightCollar
				{
					OFFSET 0 0 0
					CHANNELS 3 Zrotation Yrotation Xrotation
					JOINT RightShoulder
					{
						OFFSET -2.84327 1.20795 0.50191
CHANNELS 3 Zrotation Xrotation Yrotation
						JOINT RightElbow
						{
OFFSET 0 -4.722840 0.000000
CHANNELS 3 Zrotation Xrotation Yrotation
							JOINT RightWrist
							{
OFFSET 0 -3.234590 0.000000
CHANNELS 3 Zrotation Xrotation Yrotation
								JOINT rhand
								{
									OFFSET 0 0 0
CHANNELS 3 Zrotation Xrotation Yrotation
									JOINT RFingers
									{
OFFSET 0 -0.307420 0.000000
CHANNELS 3 Zrotation Xrotation Yrotation
										End Site
										{
OFFSET 0 -0.247850 0.000000
										}
									}
								}
								JOINT RThumb
								{
OFFSET 0 0.000000 0.000000
CHANNELS 3 Zrotation Xrotation Yrotation
									End Site
									{
OFFSET 0 -0.251630 0.251630
									}
								}
							}
						}
					}
				}
			}
		}
	}
}
MOTION
Frames: 10
Frame Time: 0.008333333333333333
16.601393 16.099928 -2.289687 -0.468237 -30.392425 7.091796 0.000000 0.000000 0.000000 -22.910042 -1.902202 -29.307432 5.127022 13.525360 41.368510 1.220888 17.446830 -33.367715 1.806320 8.444345 24.075512 0.000000 0.000000 0.000000 14.545066 21.882521 -35.704645 -5.297940 -13.711408 42.093994 0.647237 -20.421716 -23.347760 -1.536204 -7.820418 22.172016 -1.585193 -4.376077 9.159424 2.306208 -5.886758 -3.098632 4.251818 -2.731063 -8.005876 -9.646861 -4.339539 -4.404670 12.992725 -6.507747 9.862564 5.262241 -2.980758 4.391207 0.000000 0.000000 0.000000 103.569747 -7.728191 36.363240 26.506542 -37.703352 9.196190 41.186098 92.094938 -65.359792 0.000000 0.000000 0.000000 -7.125000 0.000000 0.000000 -144.391478 -77.490583 -152.337405 0.000000 0.000000 0.000000 -109.678756 3.444299 -35.825035 -24.415545 -35.599933 -7.947435 -26.657066 -0.163334 -23.098336 0.000000 0.000000 0.000000 7.125000 0.000000 0.000000 1.502948 4.472205 1.378204
16.629907 16.173643 -2.479932 0.408874 -35.405790 7.043171 0.000000 0.000000 0.000000 -23.542625 -1.537336 -29.129642 4.711928 13.051646 39.562449 1.438757 18.604948 -35.728754 3.054892 10.779718 31.544338 0.000000 0.000000 0.000000 13.625357 20.717565 -35.423605 -5.932077 -14.362024 44.708237 0.687857 -20.694430 -23.438148 -1.699308 -8.209402 23.352021 -2.262333 -4.018767 8.912133 1.937104 -5.516119 -3.117273 4.161053 -2.529516 -7.884861 -8.072536 -3.991538 -5.562867 11.811841 -6.056085 10.831941 4.635838 -2.705269 4.747687 0.000000 0.000000 0.000000 101.415875 -7.156980 33.925307 23.729138 -34.874741 7.551883 46.885031 96.030071 -66.535823 0.000000 0.000000 0.000000 -7.125000 0.000000 0.000000 -152.566803 -75.567510 -159.942143 0.000000 0.000000 0.000000 -106.268894 2.990952 -36.393288 -21.800025 -32.748857 -6.477991 -35.397091 -5.441365 -26.073069 0.000000 0.000000 0.000000 7.125000 0.000000 0.000000 -3.265826 -0.954632 -3.328610
16.651492 16.239356 -2.647177 0.135246 -40.693767 7.874168 0.000000 0.000000 0.000000 -22.946991 -1.560674 -29.016529 4.338530 12.597417 37.880170 1.988279 18.716764 -38.652089 3.654527 11.683783 34.624965 0.000000 0.000000 0.000000 13.377122 19.720724 -35.135396 -6.184536 -14.604813 45.717791 1.272984 -22.769327 -21.312920 -1.149267 -6.796368 19.117529 -1.737946 -3.422648 8.318111 1.842254 -4.655914 -3.170793 3.601822 -2.143458 -7.715739 -7.702496 -3.896035 -6.038166 11.654187 -5.938941 11.022052 4.524709 -2.624598 4.859853 0.000000 0.000000 0.000000 97.146927 -6.272487 31.087193 20.895244 -31.703305 5.995929 47.306457 97.420263 -65.810243 0.000000 0.000000 0.000000 -7.125000 0.000000 0.000000 -153.542342 -76.060202 -160.413379 0.000000 0.000000 0.000000 -100.564495 3.231590 -35.867865 -20.300906 -31.002652 -5.685739 -40.226906 -12.936086 -27.412722 0.000000 0.000000 0.000000 7.125000 0.000000 0.000000 -5.750195 -4.056827 -6.174390
16.665128 16.316660 -2.791527 0.477700 -45.942883 8.314314 0.000000 0.000000 0.000000 -22.669437 -4.154021 -27.572131 3.943436 12.084569 36.032124 2.773726 17.340819 -41.213430 4.273097 12.515108 37.579624 0.000000 0.000000 0.000000 11.959538 19.413787 -34.695389 -6.106878 -14.531076 45.409046 1.213522 -22.728620 -21.938979 -1.566773 -7.898413 22.405937 -1.310450 -2.881843 8.024938 1.706998 -3.892675 -3.446968 3.107339 -1.789354 -7.932547 -8.503380 -3.905526 -6.497859 11.539492 -5.835493 11.204255 4.624277 -2.595050 5.002876 0.000000 0.000000 0.000000 90.502263 -2.922230 24.759413 19.359532 -29.862437 5.208909 59.847270 109.642599 -65.140633 0.000000 0.000000 0.000000 -7.125000 0.000000 0.000000 -167.656155 -72.903701 -171.775032 0.000000 0.000000 0.000000 -92.589873 3.863688 -33.394546 -19.390980 -29.900681 -5.224733 -44.952645 -20.597382 -29.563672 0.000000 0.000000 0.000000 7.125000 0.000000 0.000000 -7.804472 -8.420628 -8.943804
16.644982 16.372862 -2.937136 0.235066 -51.429415 8.718745 0.000000 0.000000 0.000000 -21.604902 -7.417219 -25.490450 3.614303 11.628228 34.429720 1.971758 18.655255 -38.517406 2.413894 9.673784 27.931478 0.000000 0.000000 0.000000 11.064050 19.750896 -33.651140 -5.745310 -14.176779 43.950541 1.426517 -23.912892 -22.261889 -1.574151 -7.888772 22.391739 -0.612840 -2.187045 8.059629 1.413628 -2.902181 -3.218845 2.259419 -1.351378 -7.813051 -7.980777 -3.843750 -6.588448 11.319569 -5.632389 9.686979 4.472091 -2.501427 4.517038 0.000000 0.000000 0.000000 82.989889 0.523250 19.900947 17.469506 -27.472554 4.301723 48.863914 98.975809 -66.450079 0.000000 0.000000 0.000000 -7.125000 0.000000 0.000000 -155.102536 -75.215725 -162.038331 0.000000 0.000000 0.000000 -82.343146 4.208642 -32.095903 -17.783983 -27.879173 -4.447994 -55.597943 -34.850710 -37.208327 0.000000 0.000000 0.000000 7.125000 0.000000 0.000000 -10.682747 -22.611545 -14.147892
16.587553 16.393927 -3.035538 3.445117 -57.839270 5.783876 0.000000 0.000000 0.000000 -22.807225 -11.590116 -21.369228 3.101035 10.856838 31.798542 1.592177 16.235102 -34.371651 1.381436 7.435197 21.012215 0.000000 0.000000 0.000000 8.085348 19.639745 -33.135634 -5.551412 -13.979086 43.153585 -0.262497 -19.007649 -28.887168 -3.841273 -11.945932 35.541190 -1.537565 -1.249044 8.267674 0.562861 -1.810154 -2.991001 1.725478 -0.795302 -7.731025 -7.758582 -3.649183 -6.899546 10.666276 -5.248934 9.197972 4.249356 -2.332614 4.360891 0.000000 0.000000 0.000000 73.610572 5.963676 14.425020 16.255670 -25.865945 3.756994 42.371429 91.512532 -62.049859 0.000000 0.000000 0.000000 -7.125000 0.000000 0.000000 -145.535562 -80.138421 -151.516224 0.000000 0.000000 0.000000 -70.787287 5.018121 -28.802457 -16.526492 -26.229224 -3.875773 -57.047309 -38.018992 -40.574808 0.000000 0.000000 0.000000 7.125000 0.000000 0.000000 -9.942625 -26.925314 -13.500875
16.500002 16.412717 -3.104146 4.274661 -63.870972 5.254016 0.000000 0.000000 0.000000 -22.309331 -15.591438 -18.772581 2.881432 10.500464 30.613240 1.085677 15.362591 -30.485171 0.189341 2.796018 7.711787 0.000000 0.000000 0.000000 7.211342 18.969918 -33.217578 -5.252763 -13.662870 41.903556 -1.465750 -16.454448 -33.850150 -5.382195 -13.750755 42.344417 -0.462962 -0.415633 8.227447 0.292228 -0.592967 -3.159656 0.657750 -0.259708 -7.947312 -7.845683 -3.490490 -7.655711 10.223430 -4.924891 9.252699 4.137327 -2.174548 4.465568 0.000000 0.000000 0.000000 63.065427 11.720432 10.347163 14.360498 -23.247602 2.968967 36.223555 86.193069 -59.423181 0.000000 0.000000 0.000000 -7.125000 0.000000 0.000000 -121.666115 -82.509723 -128.124948 0.000000 0.000000 0.000000 -58.437696 6.191933 -25.996482 -15.241504 -24.481212 -3.325585 -54.398871 -36.672176 -43.331040 0.000000 0.000000 0.000000 7.125000 0.000000 0.000000 -7.477063 -27.958236 -10.163548
16.340369 16.402762 -3.211010 8.457003 -70.363327 2.680262 0.000000 0.000000 0.000000 -22.732037 -16.568934 -18.354044 2.710025 10.210069 29.659779 1.021858 14.087336 -28.825285 0.210022 2.938756 8.109146 0.000000 0.000000 0.000000 5.410457 18.757812 -35.630240 -5.106360 -13.502391 41.279816 -2.772199 -15.136503 -39.894383 -7.014468 -15.297872 48.849451 -1.334453 0.312670 7.115672 0.118933 0.278211 -3.539245 0.837687 0.203315 -7.725914 -7.482202 -3.197874 -8.623156 9.699361 -4.393490 8.541832 3.936618 -1.906308 4.344328 0.000000 0.000000 0.000000 50.490498 18.693855 6.741433 13.547638 -22.083107 2.656411 29.578567 74.750618 -55.715918 0.000000 0.000000 0.000000 -7.125000 0.000000 0.000000 -86.267427 82.878663 79.083775 0.000000 0.000000 0.000000 -45.900271 7.299723 -21.430831 -14.050740 -22.807171 -2.847766 -52.892129 -34.675904 -39.400189 0.000000 0.000000 0.000000 7.125000 0.000000 0.000000 -8.492953 -23.263524 -11.250834
16.162779 16.363560 -3.330090 10.287794 -77.007342 1.031966 0.000000 0.000000 0.000000 -22.015684 -14.162761 -18.510373 2.826107 10.408063 30.308568 0.717942 16.312564 -28.975361 0.456166 4.329206 12.005327 0.000000 0.000000 0.000000 7.130920 17.254422 -36.828971 -4.608512 -12.928697 39.102455 0.022376 -28.211819 -39.324634 -5.455273 -13.854579 42.706620 -0.491738 0.884810 7.311179 0.280430 1.143639 -3.484142 0.412575 0.588380 -7.787219 -7.258578 -3.089648 -8.995440 9.603682 -4.107591 6.666794 3.881244 -1.771232 3.808474 0.000000 0.000000 0.000000 36.360376 24.444021 10.677091 11.910537 -19.669836 2.072499 18.669542 70.401492 -51.918769 0.000000 0.000000 0.000000 -7.125000 0.000000 0.000000 -59.563292 77.998736 48.519631 0.000000 0.000000 0.000000 -33.380711 8.951439 -15.026996 -12.195159 -20.095314 -2.169855 -45.666798 -24.646859 -37.353609 0.000000 0.000000 0.000000 7.125000 0.000000 0.000000 -5.774274 -17.336576 -7.261679
15.938940 16.313572 -3.471385 29.051445 -82.833141 -16.628411 0.000000 0.000000 0.000000 -23.218637 -9.770849 -19.741288 2.848751 10.446013 30.433576 0.809616 16.753191 -30.071995 0.464509 4.370241 12.120921 0.000000 0.000000 0.000000 7.029275 15.476200 -39.135795 -4.481051 -12.774355 38.529660 -2.706059 -25.156436 -47.401927 -7.648746 -15.854703 51.287239 -1.348579 1.161758 7.123959 -0.055223 1.393416 -3.978989 0.503154 0.745003 -8.228423 -6.604860 -3.219595 -8.901936 9.135386 -4.212641 4.907738 3.622169 -1.851443 3.249288 0.000000 0.000000 0.000000 21.659111 28.946899 13.178241 10.645385 -17.741888 1.666806 8.302969 59.728571 -46.916195 0.000000 0.000000 0.000000 -7.125000 0.000000 0.000000 -50.418214 71.560107 34.373843 0.000000 0.000000 0.000000 -21.264554 12.179722 -8.523862 -9.985210 -16.715075 -1.471884 -42.728803 -18.109968 -35.389118 0.000000 0.000000 0.000000 7.125000 0.000000 0.000000 -4.928173 -13.920062 -5.989097
